<?xml version="1.0" encoding="utf-8"?>
<!-- Generator: Avocode 2.4.5 - http://avocode.com -->
<svg height="64" width="34" xmlns:xlink="http://www.w3.org/1999/xlink" xmlns="http://www.w3.org/2000/svg" viewBox="0 0 34 64">
    <path fill="#e0af6e" fill-rule="evenodd" d="M 32.79 1.13 C 32.4 0.74 31.77 0.74 31.38 1.13 C 31.38 1.13 1.21 31.29 1.21 31.29 C 1.02 31.48 0.92 31.73 0.92 32 C 0.92 32.26 1.02 32.52 1.21 32.71 C 1.21 32.71 31.38 62.87 31.38 62.87 C 31.57 63.07 31.83 63.17 32.08 63.17 C 32.34 63.17 32.6 63.07 32.79 62.87 C 33.18 62.48 33.18 61.85 32.79 61.46 C 32.79 61.46 3.33 32 3.33 32 C 3.33 32 32.79 2.54 32.79 2.54 C 33.18 2.15 33.18 1.52 32.79 1.13 Z" />
</svg>