<?xml version="1.0" encoding="utf-8"?>
<!-- Generator: Avocode 2.4.5 - http://avocode.com -->
<svg height="62" width="32" xmlns:xlink="http://www.w3.org/1999/xlink" xmlns="http://www.w3.org/2000/svg" viewBox="0 0 32 62">
    <path fill="#e0af6e" fill-rule="evenodd" d="M 0.3 61.72 C 0.69 62.11 1.32 62.11 1.71 61.72 C 1.71 61.72 31.7 31.7 31.7 31.7 C 31.88 31.52 31.99 31.26 31.99 31 C 31.99 30.74 31.88 30.48 31.7 30.3 C 31.7 30.3 1.71 0.28 1.71 0.28 C 1.51 0.09 1.26 -0.01 1 -0.01 C 0.75 -0.01 0.5 0.09 0.3 0.28 C -0.09 0.67 -0.09 1.3 0.3 1.69 C 0.3 1.69 29.59 31 29.59 31 C 29.59 31 0.3 60.31 0.3 60.31 C -0.09 60.7 -0.09 61.33 0.3 61.72 Z" />
</svg>