<?xml version="1.0" encoding="utf-8"?>
<!-- Generator: Avocode 2.4.5 - http://avocode.com -->
<svg height="27" width="53" xmlns:xlink="http://www.w3.org/1999/xlink" xmlns="http://www.w3.org/2000/svg" viewBox="0 0 53 27">
    <path fill="#e0af6e" fill-rule="evenodd" d="M 29.84 18.14 C 30.75 18.14 31.5 17.4 31.5 16.48 C 31.5 16.48 31.5 9.81 31.5 9.81 C 31.5 8.89 30.76 8.14 29.84 8.14 C 29.84 8.14 23.16 8.14 23.16 8.14 C 22.24 8.14 21.5 8.89 21.5 9.81 C 21.5 9.81 21.5 16.48 21.5 16.48 C 21.5 17.4 22.24 18.14 23.16 18.14 C 23.16 18.14 29.84 18.14 29.84 18.14 M 3.79 24.51 C 3.79 24.51 18.51 19.1 18.51 19.1 C 19.36 18.76 20.25 17.74 20.25 16.82 C 20.25 16.82 20.25 10.18 20.25 10.18 C 20.25 9.26 19.38 8.18 18.57 7.77 C 18.57 7.77 4.83 0.95 4.83 0.95 C 4.42 0.75 4.03 0.75 3.8 0.91 C 3.34 1.25 3.23 2.94 2.89 4.28 C 2.89 4.28 1.98 7.77 1.98 7.77 C 1.64 9.11 0.46 10.93 0.52 11.84 C 0.56 12.44 0.59 13.04 0.59 13.5 C 0.59 13.96 0.55 14.56 0.5 15.15 C 0.43 16.07 1.66 17.86 2.09 19.17 C 2.09 19.17 2.74 21.12 2.74 21.12 C 3.17 22.43 3.32 24.1 3.78 24.46 C 4.01 24.65 4.36 24.68 4.79 24.51 M 50.91 7.83 C 50.91 7.83 50.26 5.88 50.26 5.88 C 49.83 4.57 49.68 2.9 49.22 2.53 C 48.99 2.35 48.63 2.32 48.21 2.49 C 48.21 2.49 34.49 7.9 34.49 7.9 C 33.64 8.24 32.75 9.26 32.75 10.18 C 32.75 10.18 32.75 16.82 32.75 16.82 C 32.75 17.74 33.61 18.82 34.43 19.23 C 34.43 19.23 48.17 26.04 48.17 26.04 C 48.58 26.25 48.97 26.25 49.2 26.09 C 49.66 25.75 49.77 24.06 50.11 22.72 C 50.11 22.72 51.02 19.23 51.02 19.23 C 51.36 17.89 52.54 16.07 52.48 15.16 C 52.43 14.56 52.41 13.96 52.41 13.5 C 52.41 13.04 52.44 12.45 52.5 11.85 C 52.57 10.93 51.34 9.14 50.91 7.83" />
</svg>