<?xml version="1.0" encoding="utf-8"?>
<!-- Generator: Avocode 2.4.5 - http://avocode.com -->
<svg height="33" width="35" xmlns:xlink="http://www.w3.org/1999/xlink" xmlns="http://www.w3.org/2000/svg" viewBox="0 0 35 33">
    <path fill="#ffffff" fill-rule="evenodd" d="M 26.01 8.39 C 26.01 8.39 25.82 8.41 25.82 8.41 C 25.82 8.41 25.76 8.32 25.76 8.32 C 25.76 8.32 25.21 8.4 25.21 8.4 C 25.21 8.4 25.09 7.63 25.09 7.63 C 25.09 7.63 25.94 7.49 25.94 7.49 C 25.94 7.49 33.61 2.32 33.61 2.32 C 33.61 2.32 34.06 2.97 34.06 2.97 C 34.06 2.97 27.8 7.19 27.8 7.19 C 27.8 7.19 34.85 6.05 34.85 6.05 C 34.85 6.05 34.98 6.82 34.98 6.82 C 34.98 6.82 26.24 8.24 26.24 8.24 C 26.24 8.24 26.01 8.39 26.01 8.39 Z M 34.35 18.23 C 34.35 18.23 34.89 18.19 34.89 18.19 C 34.89 18.19 34.98 19.5 34.98 19.5 C 34.98 19.5 29.49 19.95 29.49 19.95 C 29.49 19.95 29.49 19.95 29.49 19.95 C 29.49 19.95 29.49 30.13 29.49 30.13 C 29.49 30.13 32.44 31.72 32.44 31.72 C 32.44 31.72 32.44 32.67 32.44 32.67 C 32.44 32.67 28.92 30.77 28.92 30.77 C 28.92 30.77 25.57 32.67 25.57 32.67 C 25.57 32.67 25.57 31.72 25.57 31.72 C 25.57 31.72 28.61 30 28.61 30 C 28.61 30 28.61 20.02 28.61 20.02 C 28.61 20.02 27.45 20.1 27.45 20.1 C 27.32 16.76 25.44 13.86 22.69 12.28 C 22.69 12.28 22.69 8.66 22.69 8.66 C 22.69 8.66 25.82 8.41 25.82 8.41 C 25.82 8.41 25.87 8.49 25.87 8.49 C 25.87 8.49 26.01 8.39 26.01 8.39 C 26.01 8.39 34.35 7.71 34.35 7.71 C 34.35 7.71 34.35 18.23 34.35 18.23 Z M 26.55 20.6 C 26.55 23.85 24.74 26.68 22.07 28.16 C 22.07 28.16 22.26 28.16 22.26 28.16 C 22.26 28.16 22.26 32.88 22.26 32.88 C 22.26 32.88 20.96 32.88 20.96 32.88 C 20.96 32.88 20.96 28.68 20.96 28.68 C 19.99 29.06 18.92 29.26 17.81 29.26 C 16.78 29.26 15.78 29.08 14.86 28.75 C 14.86 28.75 14.86 32.88 14.86 32.88 C 14.86 32.88 13.56 32.88 13.56 32.88 C 13.56 32.88 13.56 28.17 13.56 28.17 C 10.89 26.69 9.08 23.85 9.08 20.6 C 9.08 15.82 12.99 11.94 17.81 11.94 C 22.64 11.94 26.55 15.82 26.55 20.6 Z M 17.81 17.15 C 15.9 17.15 14.34 18.7 14.34 20.6 C 14.34 22.5 15.9 24.05 17.81 24.05 C 19.73 24.05 21.29 22.5 21.29 20.6 C 21.29 18.7 19.73 17.15 17.81 17.15 Z M 8.37 20.09 C 8.37 20.09 7.94 20.06 7.94 20.06 C 7.94 20.06 7.94 30.47 7.94 30.47 C 7.94 30.47 10.88 32.07 10.88 32.07 C 10.88 32.07 10.88 33.02 10.88 33.02 C 10.88 33.02 10.4 32.75 10.4 32.75 C 10.4 32.75 10.4 33.02 10.4 33.02 C 10.4 33.02 7.13 31.25 7.13 31.25 C 7.13 31.25 4.01 33.02 4.01 33.02 C 4.01 33.02 4.01 32.74 4.01 32.74 C 4.01 32.74 3.53 33.02 3.53 33.02 C 3.53 33.02 3.53 32.07 3.53 32.07 C 3.53 32.07 6.57 30.34 6.57 30.34 C 6.57 30.34 6.57 19.96 6.57 19.96 C 6.57 19.96 0.02 19.5 0.02 19.5 C 0.02 19.5 0.11 18.19 0.11 18.19 C 0.11 18.19 0.65 18.23 0.65 18.23 C 0.65 18.23 0.65 7.71 0.65 7.71 C 0.65 7.71 6.17 8.13 6.17 8.13 C 6.17 8.13 6.17 2.12 6.17 2.12 C 3.03 2.09 0.53 1.79 0.53 1.41 C 0.53 1.03 3.03 0.72 6.17 0.7 C 6.17 0.7 6.17 -0.02 6.17 -0.02 C 6.17 -0.02 6.96 -0.02 6.96 -0.02 C 6.96 -0.02 6.96 0.7 6.96 0.7 C 10.11 0.72 12.6 1.03 12.6 1.41 C 12.6 1.79 10.11 2.09 6.96 2.12 C 6.96 2.12 6.96 8.19 6.96 8.19 C 6.96 8.19 13.27 8.66 13.27 8.66 C 13.27 8.66 13.27 12.19 13.27 12.19 C 10.44 13.75 8.5 16.69 8.37 20.09 Z" />
</svg>