<?xml version="1.0" encoding="utf-8"?>
<!-- Generator: Avocode 2.4.5 - http://avocode.com -->
<svg height="35" width="25" xmlns:xlink="http://www.w3.org/1999/xlink" xmlns="http://www.w3.org/2000/svg" viewBox="0 0 25 35">
    <path fill="#ffffff" fill-rule="evenodd" d="M 18.42 23.17 C 18.46 23.59 18.72 23.87 18.82 23.95 C 18.63 23.78 18.36 23.73 18.08 23.73 C 18.09 24.29 18.06 24.85 18.08 25.42 C 18.12 26.8 18.83 27.78 19.87 28.63 C 20.07 28.79 19.85 29.14 19.67 29.22 C 19.17 29.44 18.1 29.79 17.91 30.4 C 17.81 30.74 17.95 31.08 18.09 31.39 C 18.43 32.16 18.71 32.88 18.56 33.73 C 18.51 34.06 17.85 34.36 17.93 33.9 C 18.12 32.77 17.3 32 17.23 30.93 C 17.17 29.93 18.14 29.3 19 28.89 C 18.16 28.12 17.53 27.18 17.46 26 C 17.41 25.27 17.48 24.55 17.43 23.83 C 16.96 23.95 16.64 24.13 16.86 23.98 C 17.06 23.85 17.19 23.6 17.29 23.35 C 15.23 23 10.19 18.62 10.19 13.66 C 10.19 8.49 13.48 4.3 17.55 4.3 C 21.62 4.3 24.92 8.49 24.92 13.66 C 24.92 18.18 20.73 22.22 18.42 23.17 Z M 20.85 6.53 C 20.85 6.53 19.49 7.14 19.49 7.14 C 19.49 7.14 23.31 10.19 21.89 14.27 C 21.89 14.27 25.01 10.91 20.85 6.53 Z M 9.28 13.33 C 9.28 15.03 9.88 16.67 10.75 18.11 C 9.81 18.95 8.88 19.54 8.16 19.8 C 8.17 20.25 8.45 20.56 8.55 20.64 C 8.41 20.52 8.24 20.47 8.05 20.44 C 8.92 23.87 9.13 27.46 8.96 30.98 C 8.95 31.32 8.31 31.62 8.33 31.15 C 8.49 27.58 8.26 23.95 7.34 20.48 C 6.79 20.6 6.34 20.83 6.59 20.67 C 6.83 20.51 6.98 20.19 7.07 19.91 C 4.93 19.4 0.08 15.08 0.08 10.22 C 0.08 5.05 3.38 0.86 7.45 0.86 C 9.95 0.86 12.15 2.45 13.49 4.87 C 11 6.37 9.28 9.59 9.28 13.33 Z M 3.53 4.44 C 3.45 4.55 3.38 4.64 3.31 4.73 C 3.25 4.83 3.18 4.92 3.12 5.02 C 2.99 5.21 2.88 5.41 2.76 5.61 C 2.54 6 2.34 6.41 2.16 6.83 C 1.82 7.66 1.57 8.55 1.51 9.45 C 1.44 10.36 1.57 11.28 1.9 12.1 C 2.24 12.92 2.76 13.64 3.38 14.23 C 2.86 13.55 2.46 12.79 2.27 11.98 C 2.08 11.18 2.09 10.35 2.27 9.57 C 2.45 8.78 2.78 8.03 3.2 7.35 C 3.41 7 3.64 6.67 3.89 6.36 C 4.02 6.2 4.14 6.05 4.28 5.9 C 4.34 5.82 4.41 5.75 4.48 5.68 C 4.54 5.61 4.62 5.54 4.67 5.49 C 4.67 5.49 3.53 4.44 3.53 4.44 Z" />
</svg>