<?xml version="1.0" encoding="utf-8"?>
<!-- Generator: Avocode 2.4.5 - http://avocode.com -->
<svg height="66" width="55" xmlns:xlink="http://www.w3.org/1999/xlink" xmlns="http://www.w3.org/2000/svg" viewBox="0 0 55 66">
    <path fill="#e0af6e" fill-rule="evenodd" d="M 55 11.93 C 55 11.72 54.91 11.54 54.76 11.41 C 54.76 11.41 43.53 0.2 43.53 0.2 C 43.53 0.2 43.53 0.2 43.53 0.2 C 43.53 0.2 43.53 0.2 43.53 0.2 C 43.5 0.17 43.47 0.14 43.44 0.12 C 43.43 0.11 43.42 0.11 43.41 0.1 C 43.39 0.09 43.36 0.07 43.34 0.06 C 43.33 0.06 43.31 0.05 43.3 0.05 C 43.27 0.03 43.24 0.03 43.2 0.02 C 43.2 0.02 43.19 0.01 43.19 0.01 C 43.15 0.01 43.11 0 43.07 0 C 43.06 0 43.06 0 43.05 0 C 43.05 0 6.33 0 6.33 0 C 5.95 0 5.65 0.3 5.65 0.68 C 5.65 0.68 5.65 33.73 5.65 33.73 C 5.65 33.73 0.68 33.73 0.68 33.73 C 0.3 33.73 0 34.03 0 34.4 C 0 34.4 0 51.27 0 51.27 C 0 51.64 0.3 51.95 0.68 51.95 C 0.68 51.95 5.65 51.95 5.65 51.95 C 5.65 51.95 5.65 65.32 5.65 65.32 C 5.65 65.7 5.95 66 6.33 66 C 6.33 66 54.32 66 54.32 66 C 54.69 66 55 65.7 55 65.32 C 55 65.32 55 11.95 55 11.95 C 55 11.94 55 11.93 55 11.93 Z M 43.73 2.31 C 43.73 2.31 52.68 11.25 52.68 11.25 C 52.68 11.25 43.73 11.25 43.73 11.25 C 43.73 11.25 43.73 2.31 43.73 2.31 Z M 1.36 35.08 C 1.36 35.08 29.64 35.08 29.64 35.08 C 29.64 35.08 29.64 50.59 29.64 50.59 C 29.64 50.59 1.36 50.59 1.36 50.59 C 1.36 50.59 1.36 35.08 1.36 35.08 Z M 7 64.65 C 7 64.65 7 51.95 7 51.95 C 7 51.95 30.32 51.95 30.32 51.95 C 30.7 51.95 31 51.64 31 51.27 C 31 51.27 31 34.4 31 34.4 C 31 34.03 30.7 33.73 30.32 33.73 C 30.32 33.73 7 33.73 7 33.73 C 7 33.73 7 1.35 7 1.35 C 7 1.35 42.37 1.35 42.37 1.35 C 42.37 1.35 42.37 11.93 42.37 11.93 C 42.37 12.3 42.68 12.6 43.05 12.6 C 43.05 12.6 53.64 12.6 53.64 12.6 C 53.64 12.6 53.64 64.65 53.64 64.65 C 53.64 64.65 7 64.65 7 64.65 Z M 8.65 37.2 C 8.65 37.2 6.15 37.2 6.15 37.2 C 5.78 37.2 5.47 37.5 5.47 37.88 C 5.47 37.88 5.47 47.8 5.47 47.8 C 5.47 48.17 5.78 48.47 6.15 48.47 C 6.53 48.47 6.83 48.17 6.83 47.8 C 6.83 47.8 6.83 43.49 6.83 43.49 C 6.83 43.49 8.63 43.5 8.63 43.5 C 8.64 43.5 8.64 43.5 8.65 43.5 C 9.49 43.5 10.28 43.17 10.88 42.58 C 11.48 41.99 11.81 41.19 11.81 40.35 C 11.81 38.61 10.39 37.2 8.65 37.2 Z M 9.92 41.62 C 9.58 41.96 9.12 42.15 8.64 42.14 C 8.64 42.14 6.83 42.14 6.83 42.14 C 6.83 42.14 6.83 38.55 6.83 38.55 C 6.83 38.55 8.65 38.55 8.65 38.55 C 9.65 38.55 10.46 39.36 10.46 40.35 C 10.46 40.83 10.27 41.28 9.92 41.62 Z M 13.63 37.2 C 13.25 37.2 12.95 37.5 12.95 37.87 C 12.95 37.87 12.95 47.8 12.95 47.8 C 12.95 48.17 13.25 48.47 13.63 48.47 C 16.75 48.47 19.29 45.95 19.29 42.84 C 19.29 39.73 16.75 37.2 13.63 37.2 Z M 14.31 47.07 C 14.31 47.07 14.31 38.6 14.31 38.6 C 16.36 38.93 17.93 40.7 17.93 42.84 C 17.93 44.97 16.36 46.74 14.31 47.07 Z M 26.77 37.88 C 26.77 38.25 26.46 38.55 26.09 38.55 C 26.09 38.55 21.78 38.55 21.78 38.55 C 21.78 38.55 21.78 42.16 21.78 42.16 C 21.78 42.16 24.84 42.16 24.84 42.16 C 25.22 42.16 25.52 42.46 25.52 42.84 C 25.52 43.21 25.22 43.51 24.84 43.51 C 24.84 43.51 21.78 43.51 21.78 43.51 C 21.78 43.51 21.78 47.8 21.78 47.8 C 21.78 48.17 21.48 48.47 21.1 48.47 C 20.73 48.47 20.42 48.17 20.42 47.8 C 20.42 47.8 20.42 37.88 20.42 37.88 C 20.42 37.5 20.73 37.2 21.1 37.2 C 21.1 37.2 26.09 37.2 26.09 37.2 C 26.46 37.2 26.77 37.5 26.77 37.88 Z M 47.94 17.54 C 47.94 17.91 47.63 18.22 47.26 18.22 C 47.26 18.22 21.17 18.22 21.17 18.22 C 20.8 18.22 20.49 17.91 20.49 17.54 C 20.49 17.17 20.8 16.86 21.17 16.86 C 21.17 16.86 47.26 16.86 47.26 16.86 C 47.63 16.86 47.94 17.17 47.94 17.54 Z M 12.7 17.54 C 12.7 17.17 13.01 16.86 13.38 16.86 C 13.38 16.86 16.21 16.86 16.21 16.86 C 16.58 16.86 16.89 17.17 16.89 17.54 C 16.89 17.91 16.58 18.22 16.21 18.22 C 16.21 18.22 13.38 18.22 13.38 18.22 C 13.01 18.22 12.7 17.91 12.7 17.54 Z M 47.94 21.76 C 47.94 22.13 47.63 22.43 47.26 22.43 C 47.26 22.43 13.38 22.43 13.38 22.43 C 13.01 22.43 12.7 22.13 12.7 21.76 C 12.7 21.38 13.01 21.08 13.38 21.08 C 13.38 21.08 47.26 21.08 47.26 21.08 C 47.63 21.08 47.94 21.38 47.94 21.76 Z M 47.94 25.97 C 47.94 26.34 47.63 26.65 47.26 26.65 C 47.26 26.65 13.38 26.65 13.38 26.65 C 13.01 26.65 12.7 26.34 12.7 25.97 C 12.7 25.6 13.01 25.3 13.38 25.3 C 13.38 25.3 47.26 25.3 47.26 25.3 C 47.63 25.3 47.94 25.6 47.94 25.97 Z M 47.94 30.19 C 47.94 30.56 47.63 30.86 47.26 30.86 C 47.26 30.86 13.38 30.86 13.38 30.86 C 13.01 30.86 12.7 30.56 12.7 30.19 C 12.7 29.82 13.01 29.51 13.38 29.51 C 13.38 29.51 47.26 29.51 47.26 29.51 C 47.63 29.51 47.94 29.82 47.94 30.19 Z M 47.94 34.41 C 47.94 34.78 47.63 35.08 47.26 35.08 C 47.26 35.08 35.18 35.08 35.18 35.08 C 34.81 35.08 34.5 34.78 34.5 34.41 C 34.5 34.03 34.81 33.73 35.18 33.73 C 35.18 33.73 47.26 33.73 47.26 33.73 C 47.63 33.73 47.94 34.03 47.94 34.41 Z M 47.94 38.62 C 47.94 39 47.63 39.3 47.26 39.3 C 47.26 39.3 35.18 39.3 35.18 39.3 C 34.81 39.3 34.5 39 34.5 38.62 C 34.5 38.25 34.81 37.95 35.18 37.95 C 35.18 37.95 47.26 37.95 47.26 37.95 C 47.63 37.95 47.94 38.25 47.94 38.62 Z M 47.94 42.84 C 47.94 43.22 47.63 43.52 47.26 43.52 C 47.26 43.52 35.18 43.52 35.18 43.52 C 34.81 43.52 34.5 43.22 34.5 42.84 C 34.5 42.47 34.81 42.17 35.18 42.17 C 35.18 42.17 47.26 42.17 47.26 42.17 C 47.63 42.17 47.94 42.47 47.94 42.84 Z M 47.94 47.06 C 47.94 47.43 47.63 47.74 47.26 47.74 C 47.26 47.74 35.18 47.74 35.18 47.74 C 34.81 47.74 34.5 47.43 34.5 47.06 C 34.5 46.69 34.81 46.39 35.18 46.39 C 35.18 46.39 47.26 46.39 47.26 46.39 C 47.63 46.39 47.94 46.69 47.94 47.06 Z M 47.94 51.28 C 47.94 51.65 47.63 51.96 47.26 51.96 C 47.26 51.96 35.18 51.96 35.18 51.96 C 34.81 51.96 34.5 51.65 34.5 51.28 C 34.5 50.91 34.81 50.6 35.18 50.6 C 35.18 50.6 47.26 50.6 47.26 50.6 C 47.63 50.6 47.94 50.91 47.94 51.28 Z" />
</svg>