<?xml version="1.0" encoding="utf-8"?>
<!-- Generator: Avocode 2.4.5 - http://avocode.com -->
<svg height="33" width="31" xmlns:xlink="http://www.w3.org/1999/xlink" xmlns="http://www.w3.org/2000/svg" viewBox="0 0 31 33">
    <path fill="#ffffff" fill-rule="evenodd" d="M 26.85 32.51 C 24.47 33.05 22.47 33.16 22.37 32.77 C 22.29 32.43 23.64 31.83 25.53 31.32 C 25.53 31.32 23.33 21.99 23.33 21.99 C 20.03 22.17 16.85 19.58 15.96 15.8 C 15.6 14.3 15.64 12.77 16.07 11.37 C 16.07 11.37 16.14 11.16 16.14 11.16 C 16.14 11.16 26.87 8.74 26.87 8.74 C 26.87 8.74 27.03 8.9 27.03 8.9 C 28.04 9.97 28.76 11.33 29.11 12.83 C 30 16.58 28.32 20.25 25.32 21.52 C 25.32 21.52 27.52 30.87 27.52 30.87 C 29.44 30.52 30.92 30.48 31 30.82 C 31.09 31.21 29.24 31.97 26.85 32.51 Z M 28.41 14.02 C 28.41 14.02 27.43 14.24 27.43 14.24 C 28.28 15.4 25.85 18.33 25.85 18.33 C 29.26 16.43 28.41 14.02 28.41 14.02 Z M 27.79 11.43 C 27.48 10.76 27.08 10.14 26.6 9.59 C 26.6 9.59 16.77 11.81 16.77 11.81 C 16.64 12.28 16.56 12.77 16.53 13.26 C 17.04 12.75 18.22 12.16 20.78 13 C 24.65 14.28 27.74 11.47 27.79 11.43 Z M 24.3 4.85 C 23.78 4.85 23.36 4.44 23.36 3.93 C 23.36 3.43 23.78 3.02 24.3 3.02 C 24.82 3.02 25.24 3.43 25.24 3.93 C 25.24 4.44 24.82 4.85 24.3 4.85 Z M 22.34 1.07 C 22.03 1.07 21.79 0.83 21.79 0.53 C 21.79 0.24 22.03 0 22.34 0 C 22.64 0 22.88 0.24 22.88 0.53 C 22.88 0.83 22.64 1.07 22.34 1.07 Z M 22.87 8.59 C 22.87 9.17 22.39 9.65 21.79 9.65 C 21.19 9.65 20.71 9.17 20.71 8.59 C 20.71 8.01 21.19 7.53 21.79 7.53 C 22.39 7.53 22.87 8.01 22.87 8.59 Z M 20.05 0.7 C 19.85 0.7 19.69 0.54 19.69 0.35 C 19.69 0.15 19.85 0 20.05 0 C 20.25 0 20.41 0.15 20.41 0.35 C 20.41 0.54 20.25 0.7 20.05 0.7 Z M 7.94 18.83 C 7.94 18.83 5.46 28.11 5.46 28.11 C 7.33 28.67 8.65 29.31 8.57 29.64 C 8.46 30.04 6.46 29.86 4.09 29.26 C 1.73 28.65 -0.1 27.85 0 27.45 C 0.09 27.12 1.57 27.2 3.48 27.61 C 3.48 27.61 5.95 18.34 5.95 18.34 C 2.95 17 1.36 13.26 2.36 9.51 C 2.75 8.02 3.51 6.69 4.55 5.64 C 4.55 5.64 4.72 5.48 4.72 5.48 C 4.72 5.48 15.37 8.2 15.37 8.2 C 15.37 8.2 15.43 8.42 15.43 8.42 C 15.82 9.83 15.82 11.36 15.42 12.85 C 14.42 16.58 11.2 19.06 7.94 18.83 Z M 14.24 13.59 C 14.24 13.59 13.25 13.33 13.25 13.33 C 13.46 14.75 9.92 16.24 9.92 16.24 C 13.84 16.1 14.24 13.59 14.24 13.59 Z M 14.72 8.84 C 14.72 8.84 4.96 6.34 4.96 6.34 C 4.63 6.7 4.33 7.1 4.07 7.52 C 4.76 7.3 6.08 7.31 7.95 9.22 C 10.77 12.11 14.84 11.02 14.91 11.01 C 14.95 10.27 14.89 9.54 14.72 8.84 Z M 13.4 2.02 C 12.84 2.02 12.37 1.56 12.37 1.01 C 12.37 0.45 12.84 0 13.4 0 C 13.98 0 14.44 0.45 14.44 1.01 C 14.44 1.56 13.98 2.02 13.4 2.02 Z M 7.68 3.31 C 7.68 3.31 7.64 3.29 7.64 3.29 C 7.68 3.08 7.71 2.86 7.71 2.65 C 7.71 2.55 7.7 2.44 7.68 2.35 C 7.67 2.25 7.64 2.15 7.61 2.07 C 7.57 1.99 7.52 1.91 7.46 1.86 C 7.4 1.81 7.35 1.76 7.29 1.69 C 7.17 1.58 7.01 1.46 6.81 1.3 C 6.81 1.3 6.81 1.24 6.81 1.24 C 7.05 1.13 7.33 1.14 7.59 1.28 C 7.71 1.34 7.82 1.45 7.89 1.58 C 7.95 1.7 7.99 1.84 8.01 1.96 C 8.06 2.22 8.03 2.46 7.96 2.68 C 7.9 2.91 7.81 3.12 7.68 3.31 Z M 6.7 5.34 C 6.7 5.34 6.58 5.34 6.58 5.34 C 6.52 4.86 6.43 4.4 6.27 3.96 C 6.2 3.75 6.11 3.54 6.01 3.35 C 5.91 3.15 5.79 2.98 5.66 2.83 C 5.53 2.68 5.37 2.57 5.21 2.5 C 5.04 2.42 4.9 2.35 4.74 2.27 C 4.42 2.1 4 1.98 3.47 1.76 C 3.47 1.76 3.44 1.65 3.44 1.65 C 3.86 1.26 4.45 1.09 5.07 1.2 C 5.37 1.25 5.67 1.4 5.9 1.62 C 6.12 1.83 6.29 2.09 6.42 2.33 C 6.7 2.83 6.8 3.36 6.83 3.86 C 6.85 4.37 6.82 4.86 6.7 5.34 Z" />
</svg>