<?xml version="1.0" encoding="utf-8"?>
<!-- Generator: Avocode 2.4.5 - http://avocode.com -->
<svg height="66" width="75" xmlns:xlink="http://www.w3.org/1999/xlink" xmlns="http://www.w3.org/2000/svg" viewBox="0 0 75 66">
    <path fill="#e0af6e" fill-rule="evenodd" d="M 63.38 66 C 63.29 66 63.21 65.99 63.12 65.96 C 63.12 65.96 21.55 54.08 21.55 54.08 C 21.32 54.01 21.12 53.85 21 53.64 C 20.88 53.42 20.85 53.16 20.91 52.93 C 20.91 52.93 22.59 47 22.59 47 C 22.59 47 10.03 49.95 10.03 49.95 C 9.79 50.01 9.53 49.97 9.33 49.84 C 9.12 49.7 8.97 49.5 8.91 49.26 C 8.91 49.26 0.02 11.02 0.02 11.02 C -0.03 10.78 0.01 10.53 0.14 10.32 C 0.27 10.11 0.47 9.96 0.71 9.9 C 0.71 9.9 42.8 0.02 42.8 0.02 C 43.3 -0.09 43.8 0.22 43.91 0.72 C 43.91 0.72 48.15 18.92 48.15 18.92 C 48.15 18.92 74.33 26.41 74.33 26.41 C 74.82 26.55 75.11 27.06 74.97 27.56 C 74.97 27.56 64.27 65.32 64.27 65.32 C 64.15 65.73 63.78 66 63.38 66 Z M 22.95 52.54 C 22.95 52.54 62.74 63.92 62.74 63.92 C 62.74 63.92 72.93 27.94 72.93 27.94 C 72.93 27.94 47.21 20.59 47.21 20.59 C 47.18 20.58 47.15 20.58 47.12 20.57 C 47.12 20.57 33.14 16.57 33.14 16.57 C 33.14 16.57 22.95 52.54 22.95 52.54 Z M 2.04 11.5 C 2.04 11.5 10.51 47.93 10.51 47.93 C 10.51 47.93 23.16 44.96 23.16 44.96 C 23.16 44.96 25.16 37.87 25.16 37.87 C 25.16 37.87 11.19 41.15 11.19 41.15 C 10.7 41.27 10.2 40.95 10.08 40.45 C 10.08 40.45 3.87 13.77 3.87 13.77 C 3.82 13.53 3.86 13.28 3.99 13.07 C 4.12 12.86 4.33 12.71 4.57 12.65 C 4.57 12.65 40.56 4.2 40.56 4.2 C 40.8 4.15 41.05 4.19 41.26 4.32 C 41.47 4.45 41.62 4.66 41.67 4.9 C 41.67 4.9 44.71 17.94 44.71 17.94 C 44.71 17.94 46.11 18.34 46.11 18.34 C 46.11 18.34 42.32 2.05 42.32 2.05 C 42.32 2.05 2.04 11.5 2.04 11.5 Z M 5.89 14.25 C 5.89 14.25 11.67 39.12 11.67 39.12 C 11.67 39.12 25.74 35.82 25.74 35.82 C 25.74 35.82 31.6 15.16 31.6 15.16 C 31.66 14.92 31.82 14.72 32.04 14.6 C 32.18 14.52 32.35 14.48 32.52 14.49 C 32.6 14.49 32.68 14.5 32.76 14.52 C 32.76 14.52 42.67 17.35 42.67 17.35 C 42.67 17.35 40.08 6.23 40.08 6.23 C 40.08 6.23 5.89 14.25 5.89 14.25 Z M 62.61 57.15 C 62.53 57.15 62.44 57.14 62.36 57.12 C 62.36 57.12 26.81 46.95 26.81 46.95 C 26.32 46.81 26.03 46.3 26.17 45.8 C 26.17 45.8 33.64 19.45 33.64 19.45 C 33.7 19.21 33.86 19.01 34.08 18.89 C 34.29 18.77 34.55 18.74 34.78 18.8 C 34.78 18.8 70.33 28.97 70.33 28.97 C 70.83 29.11 71.11 29.63 70.97 30.12 C 70.97 30.12 63.5 56.48 63.5 56.48 C 63.44 56.71 63.28 56.91 63.06 57.03 C 62.92 57.11 62.77 57.15 62.61 57.15 Z M 28.21 45.42 C 28.21 45.42 61.98 55.07 61.98 55.07 C 61.98 55.07 68.93 30.51 68.93 30.51 C 68.93 30.51 35.17 20.85 35.17 20.85 C 35.17 20.85 28.21 45.42 28.21 45.42 Z" />
</svg>