<?xml version="1.0" encoding="utf-8"?>
<!-- Generator: Avocode 2.4.5 - http://avocode.com -->
<svg height="33" width="33" xmlns:xlink="http://www.w3.org/1999/xlink" xmlns="http://www.w3.org/2000/svg" viewBox="0 0 33 33">
    <path fill="#ffffff" fill-rule="evenodd" d="M 26.02 10.44 C 24.92 10.57 24.01 10.77 23.23 11.07 C 22.69 10.29 22.11 9.55 21.47 8.87 C 21.29 8.69 21.12 8.51 20.94 8.33 C 22.62 7.28 24.04 6.56 24.93 6.29 C 26.29 5.89 27.62 5.64 28.81 5.5 C 30.99 7.94 32.46 11.03 32.88 14.45 C 30.91 12.2 28.61 10.15 26.02 10.44 Z M 19.7 7.15 C 18.98 6.5 18.26 5.9 17.55 5.34 C 18.28 4.69 18.83 4.1 19.16 3.66 C 19.86 2.74 19.83 1.47 19.77 0.32 C 22.62 0.89 25.21 2.2 27.33 4.04 C 26.41 4.2 25.44 4.41 24.46 4.71 C 23.36 5.04 21.67 5.9 19.7 7.15 Z M 16.2 4.34 C 13.97 2.76 11.97 1.69 10.67 1.06 C 12.49 0.38 14.45 0 16.51 0 C 17.04 0 17.57 0.03 18.1 0.08 C 18.1 0.12 18.1 0.16 18.1 0.2 C 18.16 1.12 18.22 2.17 17.84 2.67 C 17.53 3.08 16.96 3.68 16.2 4.34 Z M 9.53 7.85 C 8.87 7.99 8.18 8.12 7.51 8.24 C 5.46 8.63 3.36 9.02 1.43 9.79 C 2.92 6.45 5.47 3.7 8.67 1.98 C 9.18 2.18 11.75 3.29 14.83 5.41 C 13.35 6.45 11.5 7.44 9.53 7.85 Z M 9.87 9.47 C 12.3 8.96 14.53 7.7 16.23 6.42 C 16.91 6.93 17.6 7.49 18.28 8.1 C 16.23 9.51 13.98 11.26 11.86 13.22 C 8.31 16.49 4.17 21.14 2.96 25.92 C 1.1 23.25 0 20 0 16.5 C 0 14.93 0.22 13.42 0.63 11.98 C 2.73 10.81 5.22 10.35 7.82 9.87 C 8.49 9.74 9.19 9.61 9.87 9.47 Z M 19.53 9.26 C 19.78 9.5 20.03 9.75 20.27 10.01 C 20.8 10.57 21.29 11.18 21.75 11.84 C 20.23 12.91 19.45 14.56 18.77 16.86 C 18.5 17.78 18.17 19.19 17.79 20.84 C 16.99 24.26 15.65 30.01 14.23 32.84 C 10.32 32.3 6.86 30.4 4.32 27.63 C 5.08 21.03 13.43 13.41 19.53 9.26 Z M 20.35 17.32 C 20.94 15.33 21.53 14.05 22.63 13.23 C 25.46 18.15 26.59 24.79 26.7 29.47 C 23.89 31.68 20.36 33 16.51 33 C 16.33 33 16.15 32.99 15.98 32.99 C 17.22 30.26 18.28 25.99 19.39 21.21 C 19.77 19.59 20.09 18.19 20.35 17.32 Z M 26.21 12.08 C 28.55 11.82 31.09 14.81 33 17.16 C 32.83 21.4 31.07 25.22 28.29 28.06 C 28.02 23.57 26.93 17.39 24.12 12.49 C 24.71 12.31 25.39 12.17 26.21 12.08 Z" />
</svg>