<?xml version="1.0" encoding="utf-8"?>
<!-- Generator: Avocode 2.4.5 - http://avocode.com -->
<svg height="119" width="119" xmlns:xlink="http://www.w3.org/1999/xlink" xmlns="http://www.w3.org/2000/svg" viewBox="0 0 119 119">
    <path stroke-width="1" stroke="#e0af6e" fill="none" fill-rule="evenodd" d="M 1 59.5 C 1 59.5 59.5 1 59.5 1 C 59.5 1 118 59.5 118 59.5 C 118 59.5 59.5 118 59.5 118 C 59.5 118 1 59.5 1 59.5 Z" />
    <path fill="#e0af6e" fill-rule="evenodd" d="M 69.68 49.46 C 69.68 49.46 80.43 53.32 80.43 53.32 C 80.43 53.32 80.77 52.38 80.77 52.38 C 82.7 47.02 79.9 41.09 74.54 39.16 C 74.54 39.16 62.97 35 62.97 35 C 61.84 34.59 60.66 34.39 59.47 34.39 C 55.13 34.39 51.22 37.14 49.75 41.23 C 49.75 41.23 49.41 42.17 49.41 42.17 C 49.41 42.17 60.92 46.31 60.92 46.31 C 61.21 46.41 61.36 46.73 61.26 47.02 C 61.16 47.3 60.83 47.46 60.55 47.36 C 60.55 47.36 49.03 43.22 49.03 43.22 C 49.03 43.22 47.2 48.32 47.2 48.32 C 47.2 48.32 58.71 52.46 58.71 52.46 C 59 52.56 59.15 52.88 59.05 53.17 C 58.94 53.45 58.62 53.61 58.34 53.51 C 58.34 53.51 46.82 49.37 46.82 49.37 C 46.82 49.37 44.99 54.47 44.99 54.47 C 44.99 54.47 56.5 58.61 56.5 58.61 C 56.79 58.71 56.94 59.03 56.84 59.32 C 56.74 59.6 56.42 59.76 56.13 59.66 C 56.13 59.66 44.61 55.52 44.61 55.52 C 44.61 55.52 42.78 60.62 42.78 60.62 C 42.78 60.62 54.29 64.76 54.29 64.76 C 54.43 64.81 54.55 64.91 54.61 65.05 C 54.67 65.18 54.68 65.33 54.63 65.47 C 54.53 65.75 54.2 65.91 53.92 65.81 C 53.92 65.81 42.38 61.66 42.38 61.66 C 42.38 61.66 42.07 62.66 42.07 62.66 C 40.6 67.5 42.84 72.59 47.21 74.84 C 47.21 74.84 47.21 83.15 47.21 83.15 C 47.21 83.15 49.24 84.16 49.24 84.16 C 49.24 84.16 45.21 104.61 45.21 104.61 C 45.21 104.61 48.36 108.61 48.36 108.61 C 48.36 108.61 52.48 85.87 52.48 85.87 C 52.48 85.87 54.51 85.88 54.51 85.88 C 54.51 85.88 62.74 80.13 62.74 80.13 C 63 80.15 63.25 80.16 63.51 80.16 C 67.69 80.16 71.44 77.66 73.05 73.8 C 73.05 73.8 73.45 72.82 73.45 72.82 C 73.45 72.82 62.67 68.95 62.67 68.95 C 62.53 68.9 62.42 68.8 62.36 68.67 C 62.3 68.53 62.29 68.38 62.34 68.24 C 62.44 67.96 62.76 67.8 63.05 67.91 C 63.05 67.91 73.8 71.77 73.8 71.77 C 73.8 71.77 75.64 66.66 75.64 66.66 C 75.64 66.66 64.88 62.8 64.88 62.8 C 64.74 62.75 64.63 62.65 64.57 62.51 C 64.51 62.38 64.5 62.23 64.55 62.09 C 64.65 61.81 64.97 61.65 65.26 61.75 C 65.26 61.75 76.01 65.62 76.01 65.62 C 76.01 65.62 77.85 60.51 77.85 60.51 C 77.85 60.51 67.09 56.65 67.09 56.65 C 66.81 56.55 66.65 56.23 66.76 55.94 C 66.86 55.66 67.18 55.5 67.47 55.6 C 67.47 55.6 78.22 59.47 78.22 59.47 C 78.22 59.47 80.06 54.36 80.06 54.36 C 80.06 54.36 69.3 50.5 69.3 50.5 C 69.16 50.45 69.05 50.35 68.99 50.21 C 68.92 50.08 68.92 49.93 68.97 49.79 C 69.07 49.51 69.39 49.36 69.68 49.46 Z M 77.02 56.91 C 77.02 56.91 68.14 53.73 68.14 53.73 C 66.85 53.26 65.34 53.98 64.88 55.27 C 64.4 56.59 65.09 58.06 66.42 58.54 C 66.42 58.54 75.29 61.73 75.29 61.73 C 75.29 61.73 74.81 63.07 74.81 63.07 C 74.81 63.07 65.93 59.88 65.93 59.88 C 64.64 59.41 63.13 60.13 62.67 61.42 C 62.43 62.06 62.47 62.76 62.76 63.37 C 63.05 63.99 63.57 64.46 64.21 64.69 C 64.21 64.69 73.08 67.88 73.08 67.88 C 73.08 67.88 72.6 69.22 72.6 69.22 C 72.6 69.22 63.73 66.03 63.73 66.03 C 62.43 65.56 60.92 66.28 60.45 67.57 C 60.22 68.21 60.26 68.9 60.55 69.52 C 60.84 70.14 61.36 70.61 62 70.84 C 62 70.84 70.73 73.98 70.73 73.98 C 69.26 76.55 66.53 78.16 63.51 78.16 C 62.55 78.16 61.61 78 60.7 77.67 C 60.7 77.67 49.13 73.51 49.13 73.51 C 45.29 72.13 43.07 68.21 43.74 64.28 C 43.74 64.28 53.24 67.69 53.24 67.69 C 54.54 68.16 56.05 67.44 56.51 66.15 C 56.74 65.51 56.71 64.81 56.42 64.2 C 56.13 63.58 55.61 63.11 54.97 62.88 C 54.97 62.88 45.34 59.42 45.34 59.42 C 45.34 59.42 45.82 58.08 45.82 58.08 C 45.82 58.08 55.45 61.54 55.45 61.54 C 56.75 62.01 58.26 61.29 58.72 60 C 59.2 58.67 58.51 57.21 57.18 56.73 C 57.18 56.73 47.55 53.27 47.55 53.27 C 47.55 53.27 48.03 51.93 48.03 51.93 C 48.03 51.93 57.66 55.39 57.66 55.39 C 58.96 55.86 60.47 55.14 60.93 53.85 C 61.41 52.52 60.71 51.06 59.39 50.58 C 59.39 50.58 49.76 47.12 49.76 47.12 C 49.76 47.12 50.24 45.78 50.24 45.78 C 50.24 45.78 59.87 49.24 59.87 49.24 C 61.17 49.71 62.68 48.99 63.14 47.7 C 63.62 46.37 62.92 44.91 61.6 44.43 C 61.6 44.43 52.02 40.99 52.02 40.99 C 53.42 38.2 56.31 36.39 59.47 36.39 C 60.43 36.39 61.38 36.55 62.29 36.88 C 62.29 36.88 73.86 41.04 73.86 41.04 C 75.96 41.79 77.63 43.32 78.58 45.33 C 79.39 47.04 79.59 48.93 79.17 50.74 C 79.17 50.74 70.36 47.58 70.36 47.58 C 69.06 47.11 67.55 47.83 67.09 49.12 C 66.86 49.76 66.89 50.45 67.18 51.07 C 67.47 51.69 67.98 52.16 68.63 52.39 C 68.63 52.39 77.5 55.57 77.5 55.57 C 77.5 55.57 77.02 56.91 77.02 56.91 Z M 54.44 83.49 C 54.44 83.49 49.21 81.66 49.21 81.66 C 49.21 81.66 49.21 76.39 49.21 76.39 C 49.21 76.39 60.04 79.57 60.04 79.57 C 60.04 79.57 54.44 83.49 54.44 83.49 Z" />
</svg>