<?xml version="1.0" encoding="utf-8"?>
<!-- Generator: Avocode 2.4.5 - http://avocode.com -->
<svg height="159" width="28" xmlns:xlink="http://www.w3.org/1999/xlink" xmlns="http://www.w3.org/2000/svg" viewBox="0 0 28 159">
    <defs>
        <linearGradient y2="0%" y1="100%" x2="0%" x1="0%" id="gradient-1">
            <stop stop-opacity="0" stop-color="#e0af6e" offset="0%" />
            <stop stop-color="#e0af6e" offset="100%" />
        </linearGradient>
    </defs>
    <path fill="url(#gradient-1)" fill-rule="evenodd" d="M 27.87 13.87 C 27.7 14.04 27.41 14.04 27.24 13.87 C 27.24 13.87 14 1.05 14 1.05 C 14 1.05 0.76 13.87 0.76 13.87 C 0.59 14.04 0.3 14.04 0.13 13.87 C 0.04 13.78 -0.01 13.67 -0.01 13.56 C -0.01 13.45 0.04 13.34 0.13 13.25 C 0.13 13.25 13.68 0.13 13.68 0.13 C 13.77 0.05 13.88 0 14 0 C 14.12 0 14.23 0.05 14.32 0.13 C 14.32 0.13 27.87 13.25 27.87 13.25 C 28.05 13.42 28.05 13.7 27.87 13.87 Z M 15 19 C 15 19 13 19 13 19 C 13 19 13 17 13 17 C 13 17 15 17 15 17 C 15 17 15 19 15 19 Z M 15 24 C 15 24 13 24 13 24 C 13 24 13 22 13 22 C 13 22 15 22 15 22 C 15 22 15 24 15 24 Z M 15 29 C 15 29 13 29 13 29 C 13 29 13 27 13 27 C 13 27 15 27 15 27 C 15 27 15 29 15 29 Z M 15 34 C 15 34 13 34 13 34 C 13 34 13 32 13 32 C 13 32 15 32 15 32 C 15 32 15 34 15 34 Z M 15 39 C 15 39 13 39 13 39 C 13 39 13 37 13 37 C 13 37 15 37 15 37 C 15 37 15 39 15 39 Z M 15 44 C 15 44 13 44 13 44 C 13 44 13 42 13 42 C 13 42 15 42 15 42 C 15 42 15 44 15 44 Z M 15 49 C 15 49 13 49 13 49 C 13 49 13 47 13 47 C 13 47 15 47 15 47 C 15 47 15 49 15 49 Z M 15 54 C 15 54 13 54 13 54 C 13 54 13 52 13 52 C 13 52 15 52 15 52 C 15 52 15 54 15 54 Z M 15 59 C 15 59 13 59 13 59 C 13 59 13 57 13 57 C 13 57 15 57 15 57 C 15 57 15 59 15 59 Z M 15 64 C 15 64 13 64 13 64 C 13 64 13 62 13 62 C 13 62 15 62 15 62 C 15 62 15 64 15 64 Z M 15 69 C 15 69 13 69 13 69 C 13 69 13 67 13 67 C 13 67 15 67 15 67 C 15 67 15 69 15 69 Z M 15 74 C 15 74 13 74 13 74 C 13 74 13 72 13 72 C 13 72 15 72 15 72 C 15 72 15 74 15 74 Z M 15 79 C 15 79 13 79 13 79 C 13 79 13 77 13 77 C 13 77 15 77 15 77 C 15 77 15 79 15 79 Z M 15 84 C 15 84 13 84 13 84 C 13 84 13 82 13 82 C 13 82 15 82 15 82 C 15 82 15 84 15 84 Z M 15 89 C 15 89 13 89 13 89 C 13 89 13 87 13 87 C 13 87 15 87 15 87 C 15 87 15 89 15 89 Z M 15 94 C 15 94 13 94 13 94 C 13 94 13 92 13 92 C 13 92 15 92 15 92 C 15 92 15 94 15 94 Z M 15 99 C 15 99 13 99 13 99 C 13 99 13 97 13 97 C 13 97 15 97 15 97 C 15 97 15 99 15 99 Z M 15 104 C 15 104 13 104 13 104 C 13 104 13 102 13 102 C 13 102 15 102 15 102 C 15 102 15 104 15 104 Z M 15 109 C 15 109 13 109 13 109 C 13 109 13 107 13 107 C 13 107 15 107 15 107 C 15 107 15 109 15 109 Z M 15 114 C 15 114 13 114 13 114 C 13 114 13 112 13 112 C 13 112 15 112 15 112 C 15 112 15 114 15 114 Z M 15 119 C 15 119 13 119 13 119 C 13 119 13 117 13 117 C 13 117 15 117 15 117 C 15 117 15 119 15 119 Z M 15 124 C 15 124 13 124 13 124 C 13 124 13 122 13 122 C 13 122 15 122 15 122 C 15 122 15 124 15 124 Z M 15 129 C 15 129 13 129 13 129 C 13 129 13 127 13 127 C 13 127 15 127 15 127 C 15 127 15 129 15 129 Z M 15 134 C 15 134 13 134 13 134 C 13 134 13 132 13 132 C 13 132 15 132 15 132 C 15 132 15 134 15 134 Z M 15 139 C 15 139 13 139 13 139 C 13 139 13 137 13 137 C 13 137 15 137 15 137 C 15 137 15 139 15 139 Z M 15 144 C 15 144 13 144 13 144 C 13 144 13 142 13 142 C 13 142 15 142 15 142 C 15 142 15 144 15 144 Z M 15 149 C 15 149 13 149 13 149 C 13 149 13 147 13 147 C 13 147 15 147 15 147 C 15 147 15 149 15 149 Z M 15 154 C 15 154 13 154 13 154 C 13 154 13 152 13 152 C 13 152 15 152 15 152 C 15 152 15 154 15 154 Z M 15 159 C 15 159 13 159 13 159 C 13 159 13 157 13 157 C 13 157 15 157 15 157 C 15 157 15 159 15 159 Z" />
</svg>